<svg width="22" height="20" viewBox="0 0 22 20" fill="none" xmlns="http://www.w3.org/2000/svg">
<path fill-rule="evenodd" clip-rule="evenodd" d="M21 7.50624C18.007 7.50624 15.2116 6.01208 13.5488 3.52352L11.82 0.936244C11.42 0.346244 10.55 0.346244 10.16 0.936244L8.4201 3.54015C6.76422 6.01832 3.98048 7.50624 1 7.50624C0.45 7.50624 0 7.95624 0 8.50624C0 8.59624 0.01 8.68624 0.04 8.77624L2.58 18.0462C2.81 18.8862 3.58 19.5062 4.5 19.5062H17.5C18.42 19.5062 19.19 18.8862 19.43 18.0462L21.8982 9.03825C21.946 8.86385 21.98 8.68597 22 8.50624C22 7.95624 21.55 7.50624 21 7.50624ZM10.99 3.29624L13.8 7.50624H8.18L10.99 3.29624ZM9 13.5062C9 14.6062 9.9 15.5062 11 15.5062C12.1 15.5062 13 14.6062 13 13.5062C13 12.4062 12.1 11.5062 11 11.5062C9.9 11.5062 9 12.4062 9 13.5062Z" fill="black"/>
</svg>
