<svg width="10" height="10" viewBox="0 0 10 10" fill="none" xmlns="http://www.w3.org/2000/svg">
<path d="M9.00016 5.66668H5.66683V9.00001C5.66683 9.36668 5.36683 9.66668 5.00016 9.66668C4.6335 9.66668 4.3335 9.36668 4.3335 9.00001V5.66668H1.00016C0.633496 5.66668 0.333496 5.36668 0.333496 5.00001C0.333496 4.63334 0.633496 4.33334 1.00016 4.33334H4.3335V1.00001C4.3335 0.633344 4.6335 0.333344 5.00016 0.333344C5.36683 0.333344 5.66683 0.633344 5.66683 1.00001V4.33334H9.00016C9.36683 4.33334 9.66683 4.63334 9.66683 5.00001C9.66683 5.36668 9.36683 5.66668 9.00016 5.66668Z" fill="black"/>
</svg>
